PathFileType	3	(X/Y/Z)	D:\minhoCalibration\240510\subject5_KPNP\preferred\preferred20.trc
DataRate	CameraRate	NumFrames	NumMarkers	Units	OrigDataRate	OrigDataStartFrame	OrigNumFrames
200.0	200.0	15	10	mm	200.0	130	131	
Frame#	Time	Left_Ankle_Outer1			Left_Ankle_Inner1			Left_Knee_Outer1			Left_Knee_Inner1			Left_Wrist1			Right_Wrist1			Right_Knee_Inner1			Right_Knee_Outer1			Right_Ankle_Inner1			Right_Ankle_Outer1			
		X1	Y1	Z1	X2	Y2	Z2	X3	Y3	Z3	X4	Y4	Z4	X5	Y5	Z5	X6	Y6	Z6	X7	Y7	Z7	X8	Y8	Z8	X9	Y9	Z9	X10	Y10	Z10	
130	0.64	-102.3548	74.534912	-749.01984	-150.50348	88.137474	-745.83087	4.2090645	522.13177	-604.50555	-91.064796	513.61401	-608.68341	93.870232	988.71381	-758.55963	-207.35927	1041.6462	-894.74786	-378.69806	533.28387	-761.75452	-434.22617	592.46222	-810.35901	-171.071	290.74414	-1092.0051	-214.8241	356.55304	-1148.5703
131	0.645	-100.84328	75.453964	-749.5838	-150.43436	88.393555	-745.42151	6.1606302	522.00043	-605.12097	-89.623276	513.72467	-607.97369	95.782761	989.01721	-758.12726	-207.43338	1043.9475	-885.60803	-383.38257	540.99469	-743.56964	-439.12634	600.6604	-792.40533	-181.6591	298.06323	-1077.3936	-225.03552	364.94211	-1133.0066
132	0.65	-101.69785	74.677628	-749.27167	-150.3353	89.249573	-745.26318	8.0140762	521.67639	-605.71204	-87.710915	513.23828	-607.72638	98.104515	989.59271	-757.58417	-207.02545	1047.3362	-879.30933	-387.71741	549.10107	-725.15369	-444.63016	609.48712	-771.11768	-192.14641	305.53748	-1062.673	-235.28169	373.53571	-1117.201
133	0.655	-101.35949	74.884537	-749.28931	-150.0439	89.512466	-745.01025	10.065593	521.64722	-606.47992	-84.76548	514.24609	-607.41309	100.20049	990.15289	-757.14526	-207.28094	1050.0265	-871.48468	-391.53992	557.63495	-706.58276	-448.85995	618.43188	-751.8031	-202.82777	313.36615	-1047.917	-245.66972	382.53696	-1101.3386
134	0.66	-100.85429	75.102364	-749.46497	-149.13336	89.950165	-745.38037	12.017432	521.58026	-607.22156	-82.391922	513.83801	-607.67859	102.40979	990.83911	-756.93683	-206.85608	1053.403	-865.15723	-394.97235	566.54773	-687.75879	-452.89468	627.91022	-731.78473	-213.46855	321.58841	-1033.1614	-256.2056	391.95667	-1085.3387
135	0.665	-100.34046	75.289261	-749.539	-148.59898	90.207222	-745.81458	14.156505	521.59546	-608.14886	-80.164429	513.91284	-607.67767	104.5546	991.55194	-756.77533	-206.73096	1056.6238	-857.89087	-397.80212	575.72803	-669.07855	-456.28815	637.9541	-711.22479	-223.98692	330.3233	-1018.5099	-266.85043	401.711	-1069.285
136	0.67	-99.400551	75.648033	-749.62555	-147.47552	90.065331	-745.68298	16.398882	521.57959	-609.159	-78.21032	514.24799	-607.26471	106.47733	992.28131	-756.83551	-206.6642	1059.9858	-849.9328	-400.20892	585.19843	-650.26727	-458.9425	647.68329	-692.77466	-234.57333	339.66791	-1003.8745	-277.66144	411.77164	-1053.1495
137	0.675	-98.119026	75.914108	-749.74878	-146.65527	90.46492	-745.21991	18.478594	521.59033	-610.14801	-76.160393	514.33978	-607.25598	108.27452	992.98639	-757.1156	-206.79694	1062.954	-841.50439	-402.3132	595.16235	-631.16943	-460.87354	658.49432	-673.26025	-244.9852	349.5907	-989.35474	-288.60745	422.45401	-1037.1492
138	0.68	-96.884666	76.04895	-749.86664	-145.48914	90.798035	-745.31793	20.426447	521.5603	-611.00836	-74.009102	514.31036	-607.24628	109.94024	993.69751	-757.33075	-205.9473	1066.2585	-836.03546	-403.77615	605.47864	-612.44336	-462.92538	668.88416	-653.07983	-255.34401	360.03558	-974.88342	-299.4541	433.62167	-1021.2111
139	0.685	-95.262245	76.446495	-750.39459	-144.47208	91.344025	-745.65887	22.701361	521.70282	-612.09174	-71.946716	514.54816	-607.20941	111.77034	994.41095	-757.76837	-205.70062	1069.5295	-828.755	-405.28339	616.10077	-592.59448	-464.32364	680.32465	-633.73608	-265.2652	371.05386	-960.6535	-310.27036	445.25797	-1005.2459
140	0.69	-94.187599	76.806458	-750.43811	-143.04663	91.534393	-745.61823	24.699242	521.80835	-613.05408	-69.463921	514.39349	-607.51086	112.86051	994.89612	-758.73773	-205.12602	1073.0439	-821.84174	-406.06131	626.578	-575.08282	-465.63376	691.60468	-613.29065	-275.99899	382.5271	-945.9942	-320.95395	457.39081	-989.30176
141	0.695	-93.169434	77.176666	-750.46655	-142.1449	92.157616	-745.95404	26.852444	521.95282	-614.01953	-67.440254	514.67145	-607.32263	114.08949	995.38763	-759.64478	-204.774	1076.3217	-814.1875	-406.54422	637.362	-556.70898	-466.03699	703.71814	-593.49078	-286.10239	394.29236	-931.61993	-331.45596	469.99304	-973.31567
142	0.7	-92.257675	77.640388	-750.56226	-140.88403	92.842636	-746.54858	28.89328	522.06165	-614.97852	-65.352089	514.94257	-607.09766	115.17797	995.78473	-760.74121	-203.49481	1079.498	-809.11414	-406.96628	648.3526	-538.19684	-466.06833	715.88397	-574.06134	-296.5444	406.44775	-917.03632	-341.664	483.05768	-957.33893
143	0.705	-91.903374	78.102295	-750.26746	-140.26402	93.407501	-746.39502	31.340157	522.29089	-616.03137	-63.044907	515.30957	-606.96082	116.22836	996.06592	-762.15271	-203.68497	1083.0474	-799.69525	-406.84808	659.68762	-519.23071	-465.46533	728.26001	-554.92346	-306.79385	419.02478	-902.51422	-351.70636	496.54074	-941.40643
144	0.71	-91.687973	78.675858	-750.24915	-139.81386	94.060585	-746.13214	33.254059	522.35083	-617.23297	-60.306911	515.1485	-607.31464	116.9561	996.16486	-763.7215	-203.35909	1086.3119	-791.59827	-406.33173	671.02325	-501.88202	-464.33896	740.72101	-536.06091	-316.74185	432.01764	-888.14117	-361.40747	510.50055	-925.46136
